<svg id="visual" viewBox="0 0 900 600" width="900" height="600" xmlns="http://www.w3.org/2000/svg" xmlns:xlink="http://www.w3.org/1999/xlink" version="1.1"><rect x="0" y="0" width="900" height="600" fill="#888277"></rect><path d="M0 523L21.5 506.8C43 490.7 86 458.3 128.8 435.5C171.7 412.7 214.3 399.3 257.2 391.8C300 384.3 343 382.7 385.8 394.8C428.7 407 471.3 433 514.2 432.3C557 431.7 600 404.3 642.8 392.2C685.7 380 728.3 383 771.2 390.7C814 398.3 857 410.7 878.5 416.8L900 423L900 601L878.5 601C857 601 814 601 771.2 601C728.3 601 685.7 601 642.8 601C600 601 557 601 514.2 601C471.3 601 428.7 601 385.8 601C343 601 300 601 257.2 601C214.3 601 171.7 601 128.8 601C86 601 43 601 21.5 601L0 601Z" fill="#646b63" stroke-linecap="round" stroke-linejoin="miter"></path></svg>